<?xml version="1.0" standalone="no"?>
<!DOCTYPE svg PUBLIC "-//W3C//DTD SVG 20010904//EN"
 "http://www.w3.org/TR/2001/REC-SVG-20010904/DTD/svg10.dtd">
<svg version="1.0" xmlns="http://www.w3.org/2000/svg"
 width="30" height="30" viewBox="0 0 512.000000 512.000000"
 preserveAspectRatio="xMidYMid meet">
<metadata>
Created by potrace 1.16, written by Peter Selinger 2001-2019
</metadata>
<g transform="translate(0.000000,512.000000) scale(0.100000,-0.100000)"
>
<path d="M2243 5105 c-481 -64 -907 -244 -1283 -541 -110 -87 -327 -306 -411
-414 -147 -191 -301 -452 -356 -605 -75 -208 10 -428 204 -526 65 -33 71 -34
182 -34 105 0 121 3 174 27 100 47 159 114 232 263 77 157 135 250 232 371
250 313 602 528 1009 614 129 27 393 38 530 21 203 -26 361 -73 549 -166 127
-62 290 -163 281 -173 -3 -2 -54 -12 -114 -22 -132 -21 -176 -41 -209 -92 -55
-83 -34 -201 46 -253 20 -13 322 -152 672 -309 574 -258 642 -286 690 -286 68
0 126 33 158 90 l24 42 5 722 c3 548 2 732 -8 765 -33 122 -191 168 -290 84
-18 -14 -68 -81 -112 -147 -44 -67 -84 -125 -88 -130 -5 -4 -47 26 -93 67
-366 325 -801 534 -1292 619 -156 26 -575 34 -732 13z"/>
<path d="M355 2116 c-23 -14 -51 -43 -64 -66 l-24 -42 -5 -722 c-3 -548 -2
-732 8 -765 33 -122 191 -168 290 -84 18 14 68 81 112 147 44 67 84 125 88
130 5 4 47 -26 93 -67 366 -325 803 -534 1292 -618 155 -27 515 -37 678 -19
496 53 945 237 1337 546 110 87 327 306 411 414 147 191 301 452 356 605 75
208 -10 428 -204 526 -65 33 -71 34 -182 34 -105 0 -121 -3 -174 -27 -100 -47
-159 -114 -232 -263 -77 -157 -135 -250 -232 -371 -250 -313 -602 -528 -1009
-614 -129 -27 -393 -38 -530 -21 -203 26 -361 73 -549 166 -127 62 -290 163
-281 173 3 2 54 12 114 22 132 21 176 41 209 92 55 83 34 201 -46 253 -20 13
-322 152 -672 309 -580 260 -642 286 -690 286 -39 0 -65 -7 -94 -24z"/>
</g>
</svg>
